<svg xmlns="http://www.w3.org/2000/svg" viewBox="0 0 500 500" role="img" aria-label="Liu Terminal">
  <path
    d="M292.0,402.2C275.2,402.7 228.3,403.3 210.0,402.4C191.7,401.6 190.2,399.6 182.0,397.2C173.8,394.8 168.0,392.2 161.0,388.3C154.0,384.3 145.6,378.2 140.0,373.5C134.4,368.7 131.9,365.9 127.5,360.0C123.2,354.1 117.3,345.0 113.8,338.0C110.4,331.0 109.4,322.4 107.0,318.1C104.6,313.8 101.9,314.7 99.5,312.0C97.2,309.3 94.5,306.2 92.8,302.0C91.2,297.8 90.1,297.2 89.5,287.0C89.0,276.8 88.3,251.7 89.6,241.0C90.8,230.3 93.4,227.4 97.0,222.7C100.6,218.0 108.5,214.9 110.9,213.0C113.3,211.1 112.9,215.8 111.4,211.0C109.9,206.2 104.6,193.2 101.8,184.0C99.0,174.8 96.4,165.0 94.6,156.0C92.7,147.0 91.2,137.7 90.6,130.0C89.9,122.3 89.5,117.3 90.6,110.0C91.6,102.7 95.0,91.2 96.8,86.0C98.7,80.8 99.5,81.2 101.5,79.0C103.6,76.8 105.4,74.5 109.0,72.8C112.6,71.0 118.7,68.9 123.0,68.6C127.3,68.2 130.8,69.1 135.0,70.8C139.2,72.5 144.5,76.0 148.3,79.0C152.0,82.0 152.5,81.5 157.5,89.0C162.4,96.5 171.7,109.9 178.2,124.0C184.6,138.1 189.2,166.9 196.0,173.7C202.8,180.5 211.3,167.0 219.0,164.8C226.7,162.6 233.2,160.9 242.0,160.5C250.8,160.1 261.8,160.4 272.0,162.6C282.2,164.7 294.7,180.2 303.0,173.5C311.3,166.7 316.4,134.6 321.7,122.0C327.0,109.4 330.4,104.7 334.8,98.0C339.2,91.3 343.2,86.1 348.0,81.6C352.8,77.1 358.9,73.2 363.6,71.0C368.2,68.8 371.6,68.3 376.0,68.6C380.4,68.9 386.0,70.4 390.0,72.8C394.0,75.2 397.7,79.5 400.2,83.0C402.8,86.5 404.0,90.2 405.2,94.0C406.4,97.8 407.1,99.5 407.4,106.0C407.8,112.5 408.8,121.7 407.4,133.0C406.1,144.3 402.6,160.8 399.2,174.0C395.8,187.2 386.6,203.6 386.9,212.0C387.2,220.4 397.8,220.2 401.0,224.7C404.2,229.2 405.4,231.6 406.4,239.0C407.5,246.4 407.5,260.2 407.5,269.0C407.5,277.8 407.0,286.7 406.4,292.0C405.9,297.3 405.4,297.9 404.2,301.0C403.0,304.1 401.2,307.5 399.0,310.3C396.8,313.1 392.8,314.6 390.8,318.0C388.9,321.4 389.6,325.2 387.2,331.0C384.8,336.8 381.3,345.6 376.2,353.0C371.2,360.4 362.8,369.8 357.0,375.5C351.2,381.1 345.9,384.0 341.3,387.0C336.6,390.0 334.0,391.2 329.0,393.2C324.0,395.2 317.2,397.7 311.0,399.2C304.8,400.7 308.8,401.7 292.0,402.2ZM292.5,385.0C310.8,383.8 312.9,380.7 320.0,378.2C327.1,375.7 330.8,372.8 335.0,370.2C339.2,367.6 340.3,367.4 345.0,362.5C349.7,357.6 358.8,347.4 363.2,341.0C367.5,334.6 369.1,329.7 371.2,324.0C373.3,318.3 373.5,311.1 375.8,307.0C378.1,302.9 382.8,302.1 385.0,299.3C387.2,296.5 388.5,299.7 389.2,290.0C389.9,280.3 390.2,250.7 389.2,241.0C388.3,231.3 386.6,234.5 383.5,232.0C380.4,229.5 373.5,228.2 370.7,226.0C367.9,223.8 367.2,221.0 366.5,219.0C365.9,217.0 364.3,221.7 366.8,214.0C369.2,206.3 377.4,186.2 381.2,173.0C385.0,159.8 387.9,145.2 389.4,135.0C391.0,124.8 391.1,119.0 390.4,112.0C389.7,105.0 387.3,97.2 385.2,93.0C383.1,88.8 380.0,87.9 378.0,86.8C376.0,85.8 375.5,86.0 373.0,86.8C370.5,87.6 366.5,88.7 363.0,91.5C359.5,94.4 356.7,96.3 351.8,104.0C346.9,111.7 339.0,126.0 333.8,138.0C328.6,150.0 323.4,167.3 320.8,176.0C318.2,184.7 319.2,186.8 318.2,190.0C317.2,193.2 316.9,194.0 315.0,195.2C313.1,196.4 311.3,198.6 307.0,197.2C302.7,195.8 294.2,189.3 289.0,186.7C283.8,184.2 280.3,183.2 276.0,181.8C271.7,180.4 267.7,179.3 263.0,178.6C258.3,177.9 252.7,177.5 248.0,177.5C243.3,177.5 239.7,177.7 235.0,178.6C230.3,179.4 227.5,179.6 220.0,182.8C212.5,185.9 196.0,195.4 190.0,197.5C184.0,199.5 185.5,196.3 184.0,195.0C182.5,193.8 183.4,198.2 180.8,190.0C178.2,181.8 173.3,159.5 168.2,146.0C163.1,132.5 154.8,117.3 150.2,109.0C145.6,100.7 143.3,99.2 140.5,96.0C137.6,92.8 135.4,91.4 133.0,89.8C130.6,88.2 128.7,86.7 126.0,86.6C123.3,86.4 119.4,87.4 117.0,88.8C114.6,90.2 113.2,92.0 111.8,95.0C110.4,98.0 109.1,100.7 108.6,107.0C108.0,113.3 107.4,122.7 108.6,133.0C109.8,143.3 112.0,155.7 115.8,169.0C119.6,182.3 128.6,204.5 131.2,213.0C133.8,221.5 132.0,217.9 131.5,220.0C131.0,222.1 131.2,223.6 128.0,225.7C124.8,227.8 115.4,230.2 112.0,232.6C108.6,234.9 108.7,231.1 107.8,240.0C106.9,248.9 106.2,276.4 106.6,286.0C106.9,295.6 107.4,293.8 110.0,297.3C112.6,300.8 118.6,300.7 122.2,307.0C125.9,313.3 128.1,327.3 131.8,335.0C135.6,342.7 140.1,347.8 144.5,353.0C149.0,358.2 153.4,362.1 158.7,366.0C163.9,369.9 170.4,373.6 176.0,376.3C181.6,379.0 186.3,380.7 192.0,382.2C197.7,383.7 193.2,385.0 210.0,385.5C226.8,386.0 274.2,386.2 292.5,385.0Z"
    fill="#C273EF"
    fill-rule="evenodd"
  />
  <path
    d="M307.0,311.3C305.3,311.5 303.7,311.0 302.0,310.3C300.3,309.6 298.4,308.9 297.0,307.2C295.6,305.5 294.1,306.2 293.5,300.0C293.0,293.8 293.0,276.4 293.7,270.0C294.5,263.6 296.0,263.7 298.0,261.8C300.0,259.9 303.8,259.1 306.0,258.7C308.2,258.4 309.6,259.2 311.0,259.7C312.4,260.3 313.1,260.8 314.2,262.0C315.2,263.2 316.6,265.2 317.3,267.0C318.0,268.8 318.3,268.2 318.5,273.0C318.7,277.8 318.7,291.0 318.5,296.0C318.3,301.0 318.3,300.8 317.3,303.0C316.3,305.2 314.1,307.6 312.4,309.0C310.7,310.4 308.7,311.1 307.0,311.3Z"
    fill="#C273EF"
  />
  <path
    d="M189.0,311.3C186.5,311.1 182.7,309.9 180.6,308.0C178.5,306.1 177.2,306.2 176.5,300.0C175.8,293.8 176.3,276.7 176.5,271.0C176.7,265.3 176.8,267.7 177.7,266.0C178.6,264.3 180.3,261.9 182.0,260.7C183.7,259.5 185.8,258.7 188.0,258.7C190.2,258.7 193.3,259.8 195.0,260.7C196.7,261.6 197.4,262.6 198.3,264.0C199.2,265.4 199.8,266.5 200.3,269.0C200.8,271.5 201.3,275.7 201.5,279.0C201.7,282.3 201.8,284.8 201.5,289.0C201.1,293.2 200.3,300.7 199.3,304.0C198.3,307.3 197.1,307.8 195.4,309.0C193.7,310.2 191.5,311.5 189.0,311.3Z"
    fill="#C273EF"
  />
</svg>